{
	"streams": [
		{
			"index": 0,
			"codec_name": "h264",
			"codec_long_name": "H.264 / AVC / MPEG-4 AVC / MPEG-4 part 10",
			"profile": "High",
			"codec_type": "video",
			"codec_tag_string": "[0][0][0][0]",
			"codec_tag": "0x0000",
			"width": 1920,
			"height": 800,
			"coded_width": 1920,
			"coded_height": 800,
			"closed_captions": 0,
			"film_grain": 0,
			"has_b_frames": 2,
			"sample_aspect_ratio": "1:1",
			"display_aspect_ratio": "12:5",
			"pix_fmt": "yuv420p",
			"level": 41,
			"color_range": "tv",
			"color_space": "bt709",
			"color_transfer": "bt709",
			"color_primaries": "bt709",
			"chroma_location": "left",
			"field_order": "progressive",
			"refs": 1,
			"is_avc": "true",
			"nal_length_size": 4,
			"r_frame_rate": "24/1",
			"avg_frame_rate": "24/1",
			"time_base": "1/1000",
			"start_pts": 0,
			"start_time": 0.0,
			"bits_per_raw_sample": 8,
			"extradata_size": 42,
			"disposition": {
				"default": 1,
				"dub": 0,
				"original": 0,
				"comment": 0,
				"lyrics": 0,
				"karaoke": 0,
				"forced": 0,
				"hearing_impaired": 0,
				"visual_impaired": 0,
				"clean_effects": 0,
				"attached_pic": 0,
				"timed_thumbnails": 0,
				"captions": 0,
				"descriptions": 0,
				"metadata": 0,
				"dependent": 0,
				"still_image": 0
			},
			"tags": {
				"BPS-eng": 10814979,
				"DURATION-eng": "02:08:53.834000000",
				"NUMBER_OF_FRAMES-eng": 185612,
				"NUMBER_OF_BYTES-eng": 10455156743,
				"_STATISTICS_WRITING_APP-eng": "mkvmerge v51.0.0 ('I Wish') 64-bit",
				"_STATISTICS_WRITING_DATE_UTC-eng": "2022-07-22 11:08:33",
				"_STATISTICS_TAGS-eng": "BPS DURATION NUMBER_OF_FRAMES NUMBER_OF_BYTES"
			}
		},
		{
			"index": 1,
			"codec_name": "ac3",
			"codec_long_name": "ATSC A/52A (AC-3)",
			"codec_type": "audio",
			"codec_tag_string": "[0][0][0][0]",
			"codec_tag": "0x0000",
			"sample_fmt": "fltp",
			"sample_rate": 48000,
			"channels": 6,
			"channel_layout": "5.1(side)",
			"bits_per_sample": 0,
			"initial_padding": 0,
			"r_frame_rate": "0/0",
			"avg_frame_rate": "0/0",
			"time_base": "1/1000",
			"start_pts": 17,
			"start_time": 0.017,
			"bit_rate": 384000,
			"disposition": {
				"default": 1,
				"dub": 0,
				"original": 0,
				"comment": 0,
				"lyrics": 0,
				"karaoke": 0,
				"forced": 0,
				"hearing_impaired": 0,
				"visual_impaired": 0,
				"clean_effects": 0,
				"attached_pic": 0,
				"timed_thumbnails": 0,
				"captions": 0,
				"descriptions": 0,
				"metadata": 0,
				"dependent": 0,
				"still_image": 0
			},
			"tags": {
				"language": "eng",
				"title": "Surround",
				"BPS-eng": 384000,
				"DURATION-eng": "02:08:53.824000000",
				"NUMBER_OF_FRAMES-eng": 241682,
				"NUMBER_OF_BYTES-eng": 371223552,
				"_STATISTICS_WRITING_APP-eng": "mkvmerge v51.0.0 ('I Wish') 64-bit",
				"_STATISTICS_WRITING_DATE_UTC-eng": "2022-07-22 11:08:33",
				"_STATISTICS_TAGS-eng": "BPS DURATION NUMBER_OF_FRAMES NUMBER_OF_BYTES"
			}
		},
		{
			"index": 2,
			"codec_name": "eac3",
			"codec_long_name": "ATSC A/52B (AC-3, E-AC-3)",
			"profile": "Dolby Digital Plus + Dolby Atmos",
			"codec_type": "audio",
			"codec_tag_string": "[0][0][0][0]",
			"codec_tag": "0x0000",
			"sample_fmt": "fltp",
			"sample_rate": 48000,
			"channels": 6,
			"channel_layout": "5.1(side)",
			"bits_per_sample": 0,
			"initial_padding": 0,
			"r_frame_rate": "0/0",
			"avg_frame_rate": "0/0",
			"time_base": "1/1000",
			"start_pts": 3,
			"start_time": 0.003,
			"bit_rate": 768000,
			"disposition": {
				"default": 0,
				"dub": 0,
				"original": 0,
				"comment": 0,
				"lyrics": 0,
				"karaoke": 0,
				"forced": 0,
				"hearing_impaired": 0,
				"visual_impaired": 0,
				"clean_effects": 0,
				"attached_pic": 0,
				"timed_thumbnails": 0,
				"captions": 0,
				"descriptions": 0,
				"metadata": 0,
				"dependent": 0,
				"still_image": 0
			},
			"tags": {
				"language": "eng",
				"BPS-eng": 768000,
				"DURATION-eng": "02:08:53.856000000",
				"NUMBER_OF_FRAMES-eng": 241683,
				"NUMBER_OF_BYTES-eng": 742450176,
				"_STATISTICS_WRITING_APP-eng": "mkvmerge v51.0.0 ('I Wish') 64-bit",
				"_STATISTICS_WRITING_DATE_UTC-eng": "2022-07-22 11:08:33",
				"_STATISTICS_TAGS-eng": "BPS DURATION NUMBER_OF_FRAMES NUMBER_OF_BYTES"
			}
		},
		{
			"index": 3,
			"codec_name": "subrip",
			"codec_long_name": "SubRip subtitle",
			"codec_type": "subtitle",
			"codec_tag_string": "[0][0][0][0]",
			"codec_tag": "0x0000",
			"r_frame_rate": "0/0",
			"avg_frame_rate": "0/0",
			"time_base": "1/1000",
			"start_pts": 0,
			"start_time": 0.0,
			"duration_ts": 7733859,
			"duration": 7733.859,
			"disposition": {
				"default": 0,
				"dub": 0,
				"original": 0,
				"comment": 0,
				"lyrics": 0,
				"karaoke": 0,
				"forced": 0,
				"hearing_impaired": 0,
				"visual_impaired": 0,
				"clean_effects": 0,
				"attached_pic": 0,
				"timed_thumbnails": 0,
				"captions": 0,
				"descriptions": 0,
				"metadata": 0,
				"dependent": 0,
				"still_image": 0
			},
			"tags": {
				"language": "eng",
				"BPS-eng": 49,
				"DURATION-eng": "01:53:39.625000000",
				"NUMBER_OF_FRAMES-eng": 1286,
				"NUMBER_OF_BYTES-eng": 42077,
				"_STATISTICS_WRITING_APP-eng": "mkvmerge v51.0.0 ('I Wish') 64-bit",
				"_STATISTICS_WRITING_DATE_UTC-eng": "2022-07-22 11:08:33",
				"_STATISTICS_TAGS-eng": "BPS DURATION NUMBER_OF_FRAMES NUMBER_OF_BYTES"
			}
		},
		{
			"index": 4,
			"codec_name": "subrip",
			"codec_long_name": "SubRip subtitle",
			"codec_type": "subtitle",
			"codec_tag_string": "[0][0][0][0]",
			"codec_tag": "0x0000",
			"r_frame_rate": "0/0",
			"avg_frame_rate": "0/0",
			"time_base": "1/1000",
			"start_pts": 0,
			"start_time": 0.0,
			"duration_ts": 7733859,
			"duration": 7733.859,
			"disposition": {
				"default": 0,
				"dub": 0,
				"original": 0,
				"comment": 0,
				"lyrics": 0,
				"karaoke": 0,
				"forced": 0,
				"hearing_impaired": 0,
				"visual_impaired": 0,
				"clean_effects": 0,
				"attached_pic": 0,
				"timed_thumbnails": 0,
				"captions": 0,
				"descriptions": 0,
				"metadata": 0,
				"dependent": 0,
				"still_image": 0
			},
			"tags": {
				"language": "ara",
				"BPS-eng": 70,
				"DURATION-eng": "02:06:05.083000000",
				"NUMBER_OF_FRAMES-eng": 1313,
				"NUMBER_OF_BYTES-eng": 66360,
				"_STATISTICS_WRITING_APP-eng": "mkvmerge v51.0.0 ('I Wish') 64-bit",
				"_STATISTICS_WRITING_DATE_UTC-eng": "2022-07-22 11:08:33",
				"_STATISTICS_TAGS-eng": "BPS DURATION NUMBER_OF_FRAMES NUMBER_OF_BYTES"
			}
		},
		{
			"index": 5,
			"codec_name": "subrip",
			"codec_long_name": "SubRip subtitle",
			"codec_type": "subtitle",
			"codec_tag_string": "[0][0][0][0]",
			"codec_tag": "0x0000",
			"r_frame_rate": "0/0",
			"avg_frame_rate": "0/0",
			"time_base": "1/1000",
			"start_pts": 0,
			"start_time": 0.0,
			"duration_ts": 7733859,
			"duration": 7733.859,
			"disposition": {
				"default": 0,
				"dub": 0,
				"original": 0,
				"comment": 0,
				"lyrics": 0,
				"karaoke": 0,
				"forced": 0,
				"hearing_impaired": 0,
				"visual_impaired": 0,
				"clean_effects": 0,
				"attached_pic": 0,
				"timed_thumbnails": 0,
				"captions": 0,
				"descriptions": 0,
				"metadata": 0,
				"dependent": 0,
				"still_image": 0
			},
			"tags": {
				"language": "cat",
				"BPS-eng": 38,
				"DURATION-eng": "02:06:06.708000000",
				"NUMBER_OF_FRAMES-eng": 1242,
				"NUMBER_OF_BYTES-eng": 36403,
				"_STATISTICS_WRITING_APP-eng": "mkvmerge v51.0.0 ('I Wish') 64-bit",
				"_STATISTICS_WRITING_DATE_UTC-eng": "2022-07-22 11:08:33",
				"_STATISTICS_TAGS-eng": "BPS DURATION NUMBER_OF_FRAMES NUMBER_OF_BYTES"
			}
		},
		{
			"index": 6,
			"codec_name": "subrip",
			"codec_long_name": "SubRip subtitle",
			"codec_type": "subtitle",
			"codec_tag_string": "[0][0][0][0]",
			"codec_tag": "0x0000",
			"r_frame_rate": "0/0",
			"avg_frame_rate": "0/0",
			"time_base": "1/1000",
			"start_pts": 0,
			"start_time": 0.0,
			"duration_ts": 7733859,
			"duration": 7733.859,
			"disposition": {
				"default": 0,
				"dub": 0,
				"original": 0,
				"comment": 0,
				"lyrics": 0,
				"karaoke": 0,
				"forced": 0,
				"hearing_impaired": 0,
				"visual_impaired": 0,
				"clean_effects": 0,
				"attached_pic": 0,
				"timed_thumbnails": 0,
				"captions": 0,
				"descriptions": 0,
				"metadata": 0,
				"dependent": 0,
				"still_image": 0
			},
			"tags": {
				"language": "cze",
				"BPS-eng": 43,
				"DURATION-eng": "02:06:05.083000000",
				"NUMBER_OF_FRAMES-eng": 1051,
				"NUMBER_OF_BYTES-eng": 41127,
				"_STATISTICS_WRITING_APP-eng": "mkvmerge v51.0.0 ('I Wish') 64-bit",
				"_STATISTICS_WRITING_DATE_UTC-eng": "2022-07-22 11:08:33",
				"_STATISTICS_TAGS-eng": "BPS DURATION NUMBER_OF_FRAMES NUMBER_OF_BYTES"
			}
		},
		{
			"index": 7,
			"codec_name": "subrip",
			"codec_long_name": "SubRip subtitle",
			"codec_type": "subtitle",
			"codec_tag_string": "[0][0][0][0]",
			"codec_tag": "0x0000",
			"r_frame_rate": "0/0",
			"avg_frame_rate": "0/0",
			"time_base": "1/1000",
			"start_pts": 0,
			"start_time": 0.0,
			"duration_ts": 7733859,
			"duration": 7733.859,
			"disposition": {
				"default": 0,
				"dub": 0,
				"original": 0,
				"comment": 0,
				"lyrics": 0,
				"karaoke": 0,
				"forced": 0,
				"hearing_impaired": 0,
				"visual_impaired": 0,
				"clean_effects": 0,
				"attached_pic": 0,
				"timed_thumbnails": 0,
				"captions": 0,
				"descriptions": 0,
				"metadata": 0,
				"dependent": 0,
				"still_image": 0
			},
			"tags": {
				"language": "dan",
				"BPS-eng": 39,
				"DURATION-eng": "02:06:05.083000000",
				"NUMBER_OF_FRAMES-eng": 1256,
				"NUMBER_OF_BYTES-eng": 37649,
				"_STATISTICS_WRITING_APP-eng": "mkvmerge v51.0.0 ('I Wish') 64-bit",
				"_STATISTICS_WRITING_DATE_UTC-eng": "2022-07-22 11:08:33",
				"_STATISTICS_TAGS-eng": "BPS DURATION NUMBER_OF_FRAMES NUMBER_OF_BYTES"
			}
		},
		{
			"index": 8,
			"codec_name": "subrip",
			"codec_long_name": "SubRip subtitle",
			"codec_type": "subtitle",
			"codec_tag_string": "[0][0][0][0]",
			"codec_tag": "0x0000",
			"r_frame_rate": "0/0",
			"avg_frame_rate": "0/0",
			"time_base": "1/1000",
			"start_pts": 0,
			"start_time": 0.0,
			"duration_ts": 7733859,
			"duration": 7733.859,
			"disposition": {
				"default": 0,
				"dub": 0,
				"original": 0,
				"comment": 0,
				"lyrics": 0,
				"karaoke": 0,
				"forced": 0,
				"hearing_impaired": 0,
				"visual_impaired": 0,
				"clean_effects": 0,
				"attached_pic": 0,
				"timed_thumbnails": 0,
				"captions": 0,
				"descriptions": 0,
				"metadata": 0,
				"dependent": 0,
				"still_image": 0
			},
			"tags": {
				"language": "ger",
				"BPS-eng": 40,
				"DURATION-eng": "02:06:05.083000000",
				"NUMBER_OF_FRAMES-eng": 1251,
				"NUMBER_OF_BYTES-eng": 38552,
				"_STATISTICS_WRITING_APP-eng": "mkvmerge v51.0.0 ('I Wish') 64-bit",
				"_STATISTICS_WRITING_DATE_UTC-eng": "2022-07-22 11:08:33",
				"_STATISTICS_TAGS-eng": "BPS DURATION NUMBER_OF_FRAMES NUMBER_OF_BYTES"
			}
		},
		{
			"index": 9,
			"codec_name": "subrip",
			"codec_long_name": "SubRip subtitle",
			"codec_type": "subtitle",
			"codec_tag_string": "[0][0][0][0]",
			"codec_tag": "0x0000",
			"r_frame_rate": "0/0",
			"avg_frame_rate": "0/0",
			"time_base": "1/1000",
			"start_pts": 0,
			"start_time": 0.0,
			"duration_ts": 7733859,
			"duration": 7733.859,
			"disposition": {
				"default": 0,
				"dub": 0,
				"original": 0,
				"comment": 0,
				"lyrics": 0,
				"karaoke": 0,
				"forced": 0,
				"hearing_impaired": 0,
				"visual_impaired": 0,
				"clean_effects": 0,
				"attached_pic": 0,
				"timed_thumbnails": 0,
				"captions": 0,
				"descriptions": 0,
				"metadata": 0,
				"dependent": 0,
				"still_image": 0
			},
			"tags": {
				"language": "gre",
				"BPS-eng": 69,
				"DURATION-eng": "02:06:05.083000000",
				"NUMBER_OF_FRAMES-eng": 1187,
				"NUMBER_OF_BYTES-eng": 65607,
				"_STATISTICS_WRITING_APP-eng": "mkvmerge v51.0.0 ('I Wish') 64-bit",
				"_STATISTICS_WRITING_DATE_UTC-eng": "2022-07-22 11:08:33",
				"_STATISTICS_TAGS-eng": "BPS DURATION NUMBER_OF_FRAMES NUMBER_OF_BYTES"
			}
		},
		{
			"index": 10,
			"codec_name": "subrip",
			"codec_long_name": "SubRip subtitle",
			"codec_type": "subtitle",
			"codec_tag_string": "[0][0][0][0]",
			"codec_tag": "0x0000",
			"r_frame_rate": "0/0",
			"avg_frame_rate": "0/0",
			"time_base": "1/1000",
			"start_pts": 0,
			"start_time": 0.0,
			"duration_ts": 7733859,
			"duration": 7733.859,
			"disposition": {
				"default": 0,
				"dub": 0,
				"original": 0,
				"comment": 0,
				"lyrics": 0,
				"karaoke": 0,
				"forced": 0,
				"hearing_impaired": 0,
				"visual_impaired": 0,
				"clean_effects": 0,
				"attached_pic": 0,
				"timed_thumbnails": 0,
				"captions": 0,
				"descriptions": 0,
				"metadata": 0,
				"dependent": 0,
				"still_image": 0
			},
			"tags": {
				"language": "spa",
				"title": "Latin American",
				"BPS-eng": 49,
				"DURATION-eng": "01:56:20.041000000",
				"NUMBER_OF_FRAMES-eng": 1263,
				"NUMBER_OF_BYTES-eng": 43320,
				"_STATISTICS_WRITING_APP-eng": "mkvmerge v51.0.0 ('I Wish') 64-bit",
				"_STATISTICS_WRITING_DATE_UTC-eng": "2022-07-22 11:08:33",
				"_STATISTICS_TAGS-eng": "BPS DURATION NUMBER_OF_FRAMES NUMBER_OF_BYTES"
			}
		},
		{
			"index": 11,
			"codec_name": "subrip",
			"codec_long_name": "SubRip subtitle",
			"codec_type": "subtitle",
			"codec_tag_string": "[0][0][0][0]",
			"codec_tag": "0x0000",
			"r_frame_rate": "0/0",
			"avg_frame_rate": "0/0",
			"time_base": "1/1000",
			"start_pts": 0,
			"start_time": 0.0,
			"duration_ts": 7733859,
			"duration": 7733.859,
			"disposition": {
				"default": 0,
				"dub": 0,
				"original": 0,
				"comment": 0,
				"lyrics": 0,
				"karaoke": 0,
				"forced": 0,
				"hearing_impaired": 0,
				"visual_impaired": 0,
				"clean_effects": 0,
				"attached_pic": 0,
				"timed_thumbnails": 0,
				"captions": 0,
				"descriptions": 0,
				"metadata": 0,
				"dependent": 0,
				"still_image": 0
			},
			"tags": {
				"language": "spa",
				"title": "Latin American",
				"BPS-eng": 39,
				"DURATION-eng": "02:06:05.083000000",
				"NUMBER_OF_FRAMES-eng": 1237,
				"NUMBER_OF_BYTES-eng": 37583,
				"_STATISTICS_WRITING_APP-eng": "mkvmerge v51.0.0 ('I Wish') 64-bit",
				"_STATISTICS_WRITING_DATE_UTC-eng": "2022-07-22 11:08:33",
				"_STATISTICS_TAGS-eng": "BPS DURATION NUMBER_OF_FRAMES NUMBER_OF_BYTES"
			}
		},
		{
			"index": 12,
			"codec_name": "subrip",
			"codec_long_name": "SubRip subtitle",
			"codec_type": "subtitle",
			"codec_tag_string": "[0][0][0][0]",
			"codec_tag": "0x0000",
			"r_frame_rate": "0/0",
			"avg_frame_rate": "0/0",
			"time_base": "1/1000",
			"start_pts": 0,
			"start_time": 0.0,
			"duration_ts": 7733859,
			"duration": 7733.859,
			"disposition": {
				"default": 0,
				"dub": 0,
				"original": 0,
				"comment": 0,
				"lyrics": 0,
				"karaoke": 0,
				"forced": 0,
				"hearing_impaired": 0,
				"visual_impaired": 0,
				"clean_effects": 0,
				"attached_pic": 0,
				"timed_thumbnails": 0,
				"captions": 0,
				"descriptions": 0,
				"metadata": 0,
				"dependent": 0,
				"still_image": 0
			},
			"tags": {
				"language": "spa",
				"title": "Latin American (SDH)",
				"BPS-eng": 58,
				"DURATION-eng": "02:00:52.292000000",
				"NUMBER_OF_FRAMES-eng": 1679,
				"NUMBER_OF_BYTES-eng": 53059,
				"_STATISTICS_WRITING_APP-eng": "mkvmerge v51.0.0 ('I Wish') 64-bit",
				"_STATISTICS_WRITING_DATE_UTC-eng": "2022-07-22 11:08:33",
				"_STATISTICS_TAGS-eng": "BPS DURATION NUMBER_OF_FRAMES NUMBER_OF_BYTES"
			}
		},
		{
			"index": 13,
			"codec_name": "subrip",
			"codec_long_name": "SubRip subtitle",
			"codec_type": "subtitle",
			"codec_tag_string": "[0][0][0][0]",
			"codec_tag": "0x0000",
			"r_frame_rate": "0/0",
			"avg_frame_rate": "0/0",
			"time_base": "1/1000",
			"start_pts": 0,
			"start_time": 0.0,
			"duration_ts": 7733859,
			"duration": 7733.859,
			"disposition": {
				"default": 0,
				"dub": 0,
				"original": 0,
				"comment": 0,
				"lyrics": 0,
				"karaoke": 0,
				"forced": 0,
				"hearing_impaired": 0,
				"visual_impaired": 0,
				"clean_effects": 0,
				"attached_pic": 0,
				"timed_thumbnails": 0,
				"captions": 0,
				"descriptions": 0,
				"metadata": 0,
				"dependent": 0,
				"still_image": 0
			},
			"tags": {
				"language": "spa",
				"BPS-eng": 40,
				"DURATION-eng": "02:06:05.083000000",
				"NUMBER_OF_FRAMES-eng": 1279,
				"NUMBER_OF_BYTES-eng": 37871,
				"_STATISTICS_WRITING_APP-eng": "mkvmerge v51.0.0 ('I Wish') 64-bit",
				"_STATISTICS_WRITING_DATE_UTC-eng": "2022-07-22 11:08:33",
				"_STATISTICS_TAGS-eng": "BPS DURATION NUMBER_OF_FRAMES NUMBER_OF_BYTES"
			}
		},
		{
			"index": 14,
			"codec_name": "subrip",
			"codec_long_name": "SubRip subtitle",
			"codec_type": "subtitle",
			"codec_tag_string": "[0][0][0][0]",
			"codec_tag": "0x0000",
			"r_frame_rate": "0/0",
			"avg_frame_rate": "0/0",
			"time_base": "1/1000",
			"start_pts": 0,
			"start_time": 0.0,
			"duration_ts": 7733859,
			"duration": 7733.859,
			"disposition": {
				"default": 0,
				"dub": 0,
				"original": 0,
				"comment": 0,
				"lyrics": 0,
				"karaoke": 0,
				"forced": 0,
				"hearing_impaired": 0,
				"visual_impaired": 0,
				"clean_effects": 0,
				"attached_pic": 0,
				"timed_thumbnails": 0,
				"captions": 0,
				"descriptions": 0,
				"metadata": 0,
				"dependent": 0,
				"still_image": 0
			},
			"tags": {
				"language": "baq",
				"BPS-eng": 37,
				"DURATION-eng": "02:06:06.708000000",
				"NUMBER_OF_FRAMES-eng": 1292,
				"NUMBER_OF_BYTES-eng": 35361,
				"_STATISTICS_WRITING_APP-eng": "mkvmerge v51.0.0 ('I Wish') 64-bit",
				"_STATISTICS_WRITING_DATE_UTC-eng": "2022-07-22 11:08:33",
				"_STATISTICS_TAGS-eng": "BPS DURATION NUMBER_OF_FRAMES NUMBER_OF_BYTES"
			}
		},
		{
			"index": 15,
			"codec_name": "subrip",
			"codec_long_name": "SubRip subtitle",
			"codec_type": "subtitle",
			"codec_tag_string": "[0][0][0][0]",
			"codec_tag": "0x0000",
			"r_frame_rate": "0/0",
			"avg_frame_rate": "0/0",
			"time_base": "1/1000",
			"start_pts": 0,
			"start_time": 0.0,
			"duration_ts": 7733859,
			"duration": 7733.859,
			"disposition": {
				"default": 0,
				"dub": 0,
				"original": 0,
				"comment": 0,
				"lyrics": 0,
				"karaoke": 0,
				"forced": 0,
				"hearing_impaired": 0,
				"visual_impaired": 0,
				"clean_effects": 0,
				"attached_pic": 0,
				"timed_thumbnails": 0,
				"captions": 0,
				"descriptions": 0,
				"metadata": 0,
				"dependent": 0,
				"still_image": 0
			},
			"tags": {
				"language": "fin",
				"BPS-eng": 34,
				"DURATION-eng": "02:06:07.541000000",
				"NUMBER_OF_FRAMES-eng": 1288,
				"NUMBER_OF_BYTES-eng": 32484,
				"_STATISTICS_WRITING_APP-eng": "mkvmerge v51.0.0 ('I Wish') 64-bit",
				"_STATISTICS_WRITING_DATE_UTC-eng": "2022-07-22 11:08:33",
				"_STATISTICS_TAGS-eng": "BPS DURATION NUMBER_OF_FRAMES NUMBER_OF_BYTES"
			}
		},
		{
			"index": 16,
			"codec_name": "subrip",
			"codec_long_name": "SubRip subtitle",
			"codec_type": "subtitle",
			"codec_tag_string": "[0][0][0][0]",
			"codec_tag": "0x0000",
			"r_frame_rate": "0/0",
			"avg_frame_rate": "0/0",
			"time_base": "1/1000",
			"start_pts": 0,
			"start_time": 0.0,
			"duration_ts": 7733859,
			"duration": 7733.859,
			"disposition": {
				"default": 0,
				"dub": 0,
				"original": 0,
				"comment": 0,
				"lyrics": 0,
				"karaoke": 0,
				"forced": 0,
				"hearing_impaired": 0,
				"visual_impaired": 0,
				"clean_effects": 0,
				"attached_pic": 0,
				"timed_thumbnails": 0,
				"captions": 0,
				"descriptions": 0,
				"metadata": 0,
				"dependent": 0,
				"still_image": 0
			},
			"tags": {
				"language": "fil",
				"BPS-eng": 42,
				"DURATION-eng": "02:06:05.083000000",
				"NUMBER_OF_FRAMES-eng": 1267,
				"NUMBER_OF_BYTES-eng": 40065,
				"_STATISTICS_WRITING_APP-eng": "mkvmerge v51.0.0 ('I Wish') 64-bit",
				"_STATISTICS_WRITING_DATE_UTC-eng": "2022-07-22 11:08:33",
				"_STATISTICS_TAGS-eng": "BPS DURATION NUMBER_OF_FRAMES NUMBER_OF_BYTES"
			}
		},
		{
			"index": 17,
			"codec_name": "subrip",
			"codec_long_name": "SubRip subtitle",
			"codec_type": "subtitle",
			"codec_tag_string": "[0][0][0][0]",
			"codec_tag": "0x0000",
			"r_frame_rate": "0/0",
			"avg_frame_rate": "0/0",
			"time_base": "1/1000",
			"start_pts": 0,
			"start_time": 0.0,
			"duration_ts": 7733859,
			"duration": 7733.859,
			"disposition": {
				"default": 0,
				"dub": 0,
				"original": 0,
				"comment": 0,
				"lyrics": 0,
				"karaoke": 0,
				"forced": 0,
				"hearing_impaired": 0,
				"visual_impaired": 0,
				"clean_effects": 0,
				"attached_pic": 0,
				"timed_thumbnails": 0,
				"captions": 0,
				"descriptions": 0,
				"metadata": 0,
				"dependent": 0,
				"still_image": 0
			},
			"tags": {
				"language": "fre",
				"BPS-eng": 40,
				"DURATION-eng": "02:06:05.083000000",
				"NUMBER_OF_FRAMES-eng": 1275,
				"NUMBER_OF_BYTES-eng": 38724,
				"_STATISTICS_WRITING_APP-eng": "mkvmerge v51.0.0 ('I Wish') 64-bit",
				"_STATISTICS_WRITING_DATE_UTC-eng": "2022-07-22 11:08:33",
				"_STATISTICS_TAGS-eng": "BPS DURATION NUMBER_OF_FRAMES NUMBER_OF_BYTES"
			}
		},
		{
			"index": 18,
			"codec_name": "subrip",
			"codec_long_name": "SubRip subtitle",
			"codec_type": "subtitle",
			"codec_tag_string": "[0][0][0][0]",
			"codec_tag": "0x0000",
			"r_frame_rate": "0/0",
			"avg_frame_rate": "0/0",
			"time_base": "1/1000",
			"start_pts": 0,
			"start_time": 0.0,
			"duration_ts": 7733859,
			"duration": 7733.859,
			"disposition": {
				"default": 0,
				"dub": 0,
				"original": 0,
				"comment": 0,
				"lyrics": 0,
				"karaoke": 0,
				"forced": 0,
				"hearing_impaired": 0,
				"visual_impaired": 0,
				"clean_effects": 0,
				"attached_pic": 0,
				"timed_thumbnails": 0,
				"captions": 0,
				"descriptions": 0,
				"metadata": 0,
				"dependent": 0,
				"still_image": 0
			},
			"tags": {
				"language": "glg",
				"BPS-eng": 38,
				"DURATION-eng": "02:06:06.083000000",
				"NUMBER_OF_FRAMES-eng": 1300,
				"NUMBER_OF_BYTES-eng": 36141,
				"_STATISTICS_WRITING_APP-eng": "mkvmerge v51.0.0 ('I Wish') 64-bit",
				"_STATISTICS_WRITING_DATE_UTC-eng": "2022-07-22 11:08:33",
				"_STATISTICS_TAGS-eng": "BPS DURATION NUMBER_OF_FRAMES NUMBER_OF_BYTES"
			}
		},
		{
			"index": 19,
			"codec_name": "subrip",
			"codec_long_name": "SubRip subtitle",
			"codec_type": "subtitle",
			"codec_tag_string": "[0][0][0][0]",
			"codec_tag": "0x0000",
			"r_frame_rate": "0/0",
			"avg_frame_rate": "0/0",
			"time_base": "1/1000",
			"start_pts": 0,
			"start_time": 0.0,
			"duration_ts": 7733859,
			"duration": 7733.859,
			"disposition": {
				"default": 0,
				"dub": 0,
				"original": 0,
				"comment": 0,
				"lyrics": 0,
				"karaoke": 0,
				"forced": 0,
				"hearing_impaired": 0,
				"visual_impaired": 0,
				"clean_effects": 0,
				"attached_pic": 0,
				"timed_thumbnails": 0,
				"captions": 0,
				"descriptions": 0,
				"metadata": 0,
				"dependent": 0,
				"still_image": 0
			},
			"tags": {
				"language": "heb",
				"BPS-eng": 66,
				"DURATION-eng": "02:06:05.083000000",
				"NUMBER_OF_FRAMES-eng": 1272,
				"NUMBER_OF_BYTES-eng": 62474,
				"_STATISTICS_WRITING_APP-eng": "mkvmerge v51.0.0 ('I Wish') 64-bit",
				"_STATISTICS_WRITING_DATE_UTC-eng": "2022-07-22 11:08:33",
				"_STATISTICS_TAGS-eng": "BPS DURATION NUMBER_OF_FRAMES NUMBER_OF_BYTES"
			}
		},
		{
			"index": 20,
			"codec_name": "subrip",
			"codec_long_name": "SubRip subtitle",
			"codec_type": "subtitle",
			"codec_tag_string": "[0][0][0][0]",
			"codec_tag": "0x0000",
			"r_frame_rate": "0/0",
			"avg_frame_rate": "0/0",
			"time_base": "1/1000",
			"start_pts": 0,
			"start_time": 0.0,
			"duration_ts": 7733859,
			"duration": 7733.859,
			"disposition": {
				"default": 0,
				"dub": 0,
				"original": 0,
				"comment": 0,
				"lyrics": 0,
				"karaoke": 0,
				"forced": 0,
				"hearing_impaired": 0,
				"visual_impaired": 0,
				"clean_effects": 0,
				"attached_pic": 0,
				"timed_thumbnails": 0,
				"captions": 0,
				"descriptions": 0,
				"metadata": 0,
				"dependent": 0,
				"still_image": 0
			},
			"tags": {
				"language": "hrv",
				"BPS-eng": 38,
				"DURATION-eng": "02:06:05.208000000",
				"NUMBER_OF_FRAMES-eng": 1277,
				"NUMBER_OF_BYTES-eng": 36253,
				"_STATISTICS_WRITING_APP-eng": "mkvmerge v51.0.0 ('I Wish') 64-bit",
				"_STATISTICS_WRITING_DATE_UTC-eng": "2022-07-22 11:08:33",
				"_STATISTICS_TAGS-eng": "BPS DURATION NUMBER_OF_FRAMES NUMBER_OF_BYTES"
			}
		},
		{
			"index": 21,
			"codec_name": "subrip",
			"codec_long_name": "SubRip subtitle",
			"codec_type": "subtitle",
			"codec_tag_string": "[0][0][0][0]",
			"codec_tag": "0x0000",
			"r_frame_rate": "0/0",
			"avg_frame_rate": "0/0",
			"time_base": "1/1000",
			"start_pts": 0,
			"start_time": 0.0,
			"duration_ts": 7733859,
			"duration": 7733.859,
			"disposition": {
				"default": 0,
				"dub": 0,
				"original": 0,
				"comment": 0,
				"lyrics": 0,
				"karaoke": 0,
				"forced": 0,
				"hearing_impaired": 0,
				"visual_impaired": 0,
				"clean_effects": 0,
				"attached_pic": 0,
				"timed_thumbnails": 0,
				"captions": 0,
				"descriptions": 0,
				"metadata": 0,
				"dependent": 0,
				"still_image": 0
			},
			"tags": {
				"language": "hun",
				"BPS-eng": 37,
				"DURATION-eng": "02:06:05.083000000",
				"NUMBER_OF_FRAMES-eng": 1271,
				"NUMBER_OF_BYTES-eng": 35571,
				"_STATISTICS_WRITING_APP-eng": "mkvmerge v51.0.0 ('I Wish') 64-bit",
				"_STATISTICS_WRITING_DATE_UTC-eng": "2022-07-22 11:08:33",
				"_STATISTICS_TAGS-eng": "BPS DURATION NUMBER_OF_FRAMES NUMBER_OF_BYTES"
			}
		},
		{
			"index": 22,
			"codec_name": "subrip",
			"codec_long_name": "SubRip subtitle",
			"codec_type": "subtitle",
			"codec_tag_string": "[0][0][0][0]",
			"codec_tag": "0x0000",
			"r_frame_rate": "0/0",
			"avg_frame_rate": "0/0",
			"time_base": "1/1000",
			"start_pts": 0,
			"start_time": 0.0,
			"duration_ts": 7733859,
			"duration": 7733.859,
			"disposition": {
				"default": 0,
				"dub": 0,
				"original": 0,
				"comment": 0,
				"lyrics": 0,
				"karaoke": 0,
				"forced": 0,
				"hearing_impaired": 0,
				"visual_impaired": 0,
				"clean_effects": 0,
				"attached_pic": 0,
				"timed_thumbnails": 0,
				"captions": 0,
				"descriptions": 0,
				"metadata": 0,
				"dependent": 0,
				"still_image": 0
			},
			"tags": {
				"language": "ind",
				"BPS-eng": 37,
				"DURATION-eng": "02:06:05.083000000",
				"NUMBER_OF_FRAMES-eng": 1303,
				"NUMBER_OF_BYTES-eng": 35386,
				"_STATISTICS_WRITING_APP-eng": "mkvmerge v51.0.0 ('I Wish') 64-bit",
				"_STATISTICS_WRITING_DATE_UTC-eng": "2022-07-22 11:08:33",
				"_STATISTICS_TAGS-eng": "BPS DURATION NUMBER_OF_FRAMES NUMBER_OF_BYTES"
			}
		},
		{
			"index": 23,
			"codec_name": "subrip",
			"codec_long_name": "SubRip subtitle",
			"codec_type": "subtitle",
			"codec_tag_string": "[0][0][0][0]",
			"codec_tag": "0x0000",
			"r_frame_rate": "0/0",
			"avg_frame_rate": "0/0",
			"time_base": "1/1000",
			"start_pts": 0,
			"start_time": 0.0,
			"duration_ts": 7733859,
			"duration": 7733.859,
			"disposition": {
				"default": 0,
				"dub": 0,
				"original": 0,
				"comment": 0,
				"lyrics": 0,
				"karaoke": 0,
				"forced": 0,
				"hearing_impaired": 0,
				"visual_impaired": 0,
				"clean_effects": 0,
				"attached_pic": 0,
				"timed_thumbnails": 0,
				"captions": 0,
				"descriptions": 0,
				"metadata": 0,
				"dependent": 0,
				"still_image": 0
			},
			"tags": {
				"language": "ita",
				"BPS-eng": 41,
				"DURATION-eng": "01:56:19.833000000",
				"NUMBER_OF_FRAMES-eng": 1275,
				"NUMBER_OF_BYTES-eng": 36060,
				"_STATISTICS_WRITING_APP-eng": "mkvmerge v51.0.0 ('I Wish') 64-bit",
				"_STATISTICS_WRITING_DATE_UTC-eng": "2022-07-22 11:08:33",
				"_STATISTICS_TAGS-eng": "BPS DURATION NUMBER_OF_FRAMES NUMBER_OF_BYTES"
			}
		},
		{
			"index": 24,
			"codec_name": "subrip",
			"codec_long_name": "SubRip subtitle",
			"codec_type": "subtitle",
			"codec_tag_string": "[0][0][0][0]",
			"codec_tag": "0x0000",
			"r_frame_rate": "0/0",
			"avg_frame_rate": "0/0",
			"time_base": "1/1000",
			"start_pts": 0,
			"start_time": 0.0,
			"duration_ts": 7733859,
			"duration": 7733.859,
			"disposition": {
				"default": 0,
				"dub": 0,
				"original": 0,
				"comment": 0,
				"lyrics": 0,
				"karaoke": 0,
				"forced": 0,
				"hearing_impaired": 0,
				"visual_impaired": 0,
				"clean_effects": 0,
				"attached_pic": 0,
				"timed_thumbnails": 0,
				"captions": 0,
				"descriptions": 0,
				"metadata": 0,
				"dependent": 0,
				"still_image": 0
			},
			"tags": {
				"language": "jpn",
				"BPS-eng": 38,
				"DURATION-eng": "02:06:05.083000000",
				"NUMBER_OF_FRAMES-eng": 1370,
				"NUMBER_OF_BYTES-eng": 36808,
				"_STATISTICS_WRITING_APP-eng": "mkvmerge v51.0.0 ('I Wish') 64-bit",
				"_STATISTICS_WRITING_DATE_UTC-eng": "2022-07-22 11:08:33",
				"_STATISTICS_TAGS-eng": "BPS DURATION NUMBER_OF_FRAMES NUMBER_OF_BYTES"
			}
		},
		{
			"index": 25,
			"codec_name": "subrip",
			"codec_long_name": "SubRip subtitle",
			"codec_type": "subtitle",
			"codec_tag_string": "[0][0][0][0]",
			"codec_tag": "0x0000",
			"r_frame_rate": "0/0",
			"avg_frame_rate": "0/0",
			"time_base": "1/1000",
			"start_pts": 0,
			"start_time": 0.0,
			"duration_ts": 7733859,
			"duration": 7733.859,
			"disposition": {
				"default": 0,
				"dub": 0,
				"original": 0,
				"comment": 0,
				"lyrics": 0,
				"karaoke": 0,
				"forced": 0,
				"hearing_impaired": 0,
				"visual_impaired": 0,
				"clean_effects": 0,
				"attached_pic": 0,
				"timed_thumbnails": 0,
				"captions": 0,
				"descriptions": 0,
				"metadata": 0,
				"dependent": 0,
				"still_image": 0
			},
			"tags": {
				"language": "kor",
				"BPS-eng": 47,
				"DURATION-eng": "02:06:07.250000000",
				"NUMBER_OF_FRAMES-eng": 1305,
				"NUMBER_OF_BYTES-eng": 44819,
				"_STATISTICS_WRITING_APP-eng": "mkvmerge v51.0.0 ('I Wish') 64-bit",
				"_STATISTICS_WRITING_DATE_UTC-eng": "2022-07-22 11:08:33",
				"_STATISTICS_TAGS-eng": "BPS DURATION NUMBER_OF_FRAMES NUMBER_OF_BYTES"
			}
		},
		{
			"index": 26,
			"codec_name": "subrip",
			"codec_long_name": "SubRip subtitle",
			"codec_type": "subtitle",
			"codec_tag_string": "[0][0][0][0]",
			"codec_tag": "0x0000",
			"r_frame_rate": "0/0",
			"avg_frame_rate": "0/0",
			"time_base": "1/1000",
			"start_pts": 0,
			"start_time": 0.0,
			"duration_ts": 7733859,
			"duration": 7733.859,
			"disposition": {
				"default": 0,
				"dub": 0,
				"original": 0,
				"comment": 0,
				"lyrics": 0,
				"karaoke": 0,
				"forced": 0,
				"hearing_impaired": 0,
				"visual_impaired": 0,
				"clean_effects": 0,
				"attached_pic": 0,
				"timed_thumbnails": 0,
				"captions": 0,
				"descriptions": 0,
				"metadata": 0,
				"dependent": 0,
				"still_image": 0
			},
			"tags": {
				"language": "may",
				"BPS-eng": 39,
				"DURATION-eng": "02:06:05.083000000",
				"NUMBER_OF_FRAMES-eng": 1255,
				"NUMBER_OF_BYTES-eng": 37392,
				"_STATISTICS_WRITING_APP-eng": "mkvmerge v51.0.0 ('I Wish') 64-bit",
				"_STATISTICS_WRITING_DATE_UTC-eng": "2022-07-22 11:08:33",
				"_STATISTICS_TAGS-eng": "BPS DURATION NUMBER_OF_FRAMES NUMBER_OF_BYTES"
			}
		},
		{
			"index": 27,
			"codec_name": "subrip",
			"codec_long_name": "SubRip subtitle",
			"codec_type": "subtitle",
			"codec_tag_string": "[0][0][0][0]",
			"codec_tag": "0x0000",
			"r_frame_rate": "0/0",
			"avg_frame_rate": "0/0",
			"time_base": "1/1000",
			"start_pts": 0,
			"start_time": 0.0,
			"duration_ts": 7733859,
			"duration": 7733.859,
			"disposition": {
				"default": 0,
				"dub": 0,
				"original": 0,
				"comment": 0,
				"lyrics": 0,
				"karaoke": 0,
				"forced": 0,
				"hearing_impaired": 0,
				"visual_impaired": 0,
				"clean_effects": 0,
				"attached_pic": 0,
				"timed_thumbnails": 0,
				"captions": 0,
				"descriptions": 0,
				"metadata": 0,
				"dependent": 0,
				"still_image": 0
			},
			"tags": {
				"language": "nob",
				"BPS-eng": 35,
				"DURATION-eng": "02:06:05.083000000",
				"NUMBER_OF_FRAMES-eng": 1083,
				"NUMBER_OF_BYTES-eng": 33401,
				"_STATISTICS_WRITING_APP-eng": "mkvmerge v51.0.0 ('I Wish') 64-bit",
				"_STATISTICS_WRITING_DATE_UTC-eng": "2022-07-22 11:08:33",
				"_STATISTICS_TAGS-eng": "BPS DURATION NUMBER_OF_FRAMES NUMBER_OF_BYTES"
			}
		},
		{
			"index": 28,
			"codec_name": "subrip",
			"codec_long_name": "SubRip subtitle",
			"codec_type": "subtitle",
			"codec_tag_string": "[0][0][0][0]",
			"codec_tag": "0x0000",
			"r_frame_rate": "0/0",
			"avg_frame_rate": "0/0",
			"time_base": "1/1000",
			"start_pts": 0,
			"start_time": 0.0,
			"duration_ts": 7733859,
			"duration": 7733.859,
			"disposition": {
				"default": 0,
				"dub": 0,
				"original": 0,
				"comment": 0,
				"lyrics": 0,
				"karaoke": 0,
				"forced": 0,
				"hearing_impaired": 0,
				"visual_impaired": 0,
				"clean_effects": 0,
				"attached_pic": 0,
				"timed_thumbnails": 0,
				"captions": 0,
				"descriptions": 0,
				"metadata": 0,
				"dependent": 0,
				"still_image": 0
			},
			"tags": {
				"language": "dut",
				"BPS-eng": 37,
				"DURATION-eng": "02:06:07.166000000",
				"NUMBER_OF_FRAMES-eng": 1033,
				"NUMBER_OF_BYTES-eng": 35639,
				"_STATISTICS_WRITING_APP-eng": "mkvmerge v51.0.0 ('I Wish') 64-bit",
				"_STATISTICS_WRITING_DATE_UTC-eng": "2022-07-22 11:08:33",
				"_STATISTICS_TAGS-eng": "BPS DURATION NUMBER_OF_FRAMES NUMBER_OF_BYTES"
			}
		},
		{
			"index": 29,
			"codec_name": "subrip",
			"codec_long_name": "SubRip subtitle",
			"codec_type": "subtitle",
			"codec_tag_string": "[0][0][0][0]",
			"codec_tag": "0x0000",
			"r_frame_rate": "0/0",
			"avg_frame_rate": "0/0",
			"time_base": "1/1000",
			"start_pts": 0,
			"start_time": 0.0,
			"duration_ts": 7733859,
			"duration": 7733.859,
			"disposition": {
				"default": 0,
				"dub": 0,
				"original": 0,
				"comment": 0,
				"lyrics": 0,
				"karaoke": 0,
				"forced": 0,
				"hearing_impaired": 0,
				"visual_impaired": 0,
				"clean_effects": 0,
				"attached_pic": 0,
				"timed_thumbnails": 0,
				"captions": 0,
				"descriptions": 0,
				"metadata": 0,
				"dependent": 0,
				"still_image": 0
			},
			"tags": {
				"language": "pol",
				"BPS-eng": 39,
				"DURATION-eng": "02:06:05.083000000",
				"NUMBER_OF_FRAMES-eng": 1269,
				"NUMBER_OF_BYTES-eng": 36905,
				"_STATISTICS_WRITING_APP-eng": "mkvmerge v51.0.0 ('I Wish') 64-bit",
				"_STATISTICS_WRITING_DATE_UTC-eng": "2022-07-22 11:08:33",
				"_STATISTICS_TAGS-eng": "BPS DURATION NUMBER_OF_FRAMES NUMBER_OF_BYTES"
			}
		},
		{
			"index": 30,
			"codec_name": "subrip",
			"codec_long_name": "SubRip subtitle",
			"codec_type": "subtitle",
			"codec_tag_string": "[0][0][0][0]",
			"codec_tag": "0x0000",
			"r_frame_rate": "0/0",
			"avg_frame_rate": "0/0",
			"time_base": "1/1000",
			"start_pts": 0,
			"start_time": 0.0,
			"duration_ts": 7733859,
			"duration": 7733.859,
			"disposition": {
				"default": 0,
				"dub": 0,
				"original": 0,
				"comment": 0,
				"lyrics": 0,
				"karaoke": 0,
				"forced": 0,
				"hearing_impaired": 0,
				"visual_impaired": 0,
				"clean_effects": 0,
				"attached_pic": 0,
				"timed_thumbnails": 0,
				"captions": 0,
				"descriptions": 0,
				"metadata": 0,
				"dependent": 0,
				"still_image": 0
			},
			"tags": {
				"language": "por",
				"title": "Brazilian",
				"BPS-eng": 48,
				"DURATION-eng": "01:56:20.041000000",
				"NUMBER_OF_FRAMES-eng": 1286,
				"NUMBER_OF_BYTES-eng": 42268,
				"_STATISTICS_WRITING_APP-eng": "mkvmerge v51.0.0 ('I Wish') 64-bit",
				"_STATISTICS_WRITING_DATE_UTC-eng": "2022-07-22 11:08:33",
				"_STATISTICS_TAGS-eng": "BPS DURATION NUMBER_OF_FRAMES NUMBER_OF_BYTES"
			}
		},
		{
			"index": 31,
			"codec_name": "subrip",
			"codec_long_name": "SubRip subtitle",
			"codec_type": "subtitle",
			"codec_tag_string": "[0][0][0][0]",
			"codec_tag": "0x0000",
			"r_frame_rate": "0/0",
			"avg_frame_rate": "0/0",
			"time_base": "1/1000",
			"start_pts": 0,
			"start_time": 0.0,
			"duration_ts": 7733859,
			"duration": 7733.859,
			"disposition": {
				"default": 0,
				"dub": 0,
				"original": 0,
				"comment": 0,
				"lyrics": 0,
				"karaoke": 0,
				"forced": 0,
				"hearing_impaired": 0,
				"visual_impaired": 0,
				"clean_effects": 0,
				"attached_pic": 0,
				"timed_thumbnails": 0,
				"captions": 0,
				"descriptions": 0,
				"metadata": 0,
				"dependent": 0,
				"still_image": 0
			},
			"tags": {
				"language": "por",
				"title": "Brazilian",
				"BPS-eng": 40,
				"DURATION-eng": "02:06:05.125000000",
				"NUMBER_OF_FRAMES-eng": 1223,
				"NUMBER_OF_BYTES-eng": 37901,
				"_STATISTICS_WRITING_APP-eng": "mkvmerge v51.0.0 ('I Wish') 64-bit",
				"_STATISTICS_WRITING_DATE_UTC-eng": "2022-07-22 11:08:33",
				"_STATISTICS_TAGS-eng": "BPS DURATION NUMBER_OF_FRAMES NUMBER_OF_BYTES"
			}
		},
		{
			"index": 32,
			"codec_name": "subrip",
			"codec_long_name": "SubRip subtitle",
			"codec_type": "subtitle",
			"codec_tag_string": "[0][0][0][0]",
			"codec_tag": "0x0000",
			"r_frame_rate": "0/0",
			"avg_frame_rate": "0/0",
			"time_base": "1/1000",
			"start_pts": 0,
			"start_time": 0.0,
			"duration_ts": 7733859,
			"duration": 7733.859,
			"disposition": {
				"default": 0,
				"dub": 0,
				"original": 0,
				"comment": 0,
				"lyrics": 0,
				"karaoke": 0,
				"forced": 0,
				"hearing_impaired": 0,
				"visual_impaired": 0,
				"clean_effects": 0,
				"attached_pic": 0,
				"timed_thumbnails": 0,
				"captions": 0,
				"descriptions": 0,
				"metadata": 0,
				"dependent": 0,
				"still_image": 0
			},
			"tags": {
				"language": "por",
				"title": "Brazilian (SDH)",
				"BPS-eng": 60,
				"DURATION-eng": "02:00:52.292000000",
				"NUMBER_OF_FRAMES-eng": 1733,
				"NUMBER_OF_BYTES-eng": 54520,
				"_STATISTICS_WRITING_APP-eng": "mkvmerge v51.0.0 ('I Wish') 64-bit",
				"_STATISTICS_WRITING_DATE_UTC-eng": "2022-07-22 11:08:33",
				"_STATISTICS_TAGS-eng": "BPS DURATION NUMBER_OF_FRAMES NUMBER_OF_BYTES"
			}
		},
		{
			"index": 33,
			"codec_name": "subrip",
			"codec_long_name": "SubRip subtitle",
			"codec_type": "subtitle",
			"codec_tag_string": "[0][0][0][0]",
			"codec_tag": "0x0000",
			"r_frame_rate": "0/0",
			"avg_frame_rate": "0/0",
			"time_base": "1/1000",
			"start_pts": 0,
			"start_time": 0.0,
			"duration_ts": 7733859,
			"duration": 7733.859,
			"disposition": {
				"default": 0,
				"dub": 0,
				"original": 0,
				"comment": 0,
				"lyrics": 0,
				"karaoke": 0,
				"forced": 0,
				"hearing_impaired": 0,
				"visual_impaired": 0,
				"clean_effects": 0,
				"attached_pic": 0,
				"timed_thumbnails": 0,
				"captions": 0,
				"descriptions": 0,
				"metadata": 0,
				"dependent": 0,
				"still_image": 0
			},
			"tags": {
				"language": "por",
				"BPS-eng": 46,
				"DURATION-eng": "01:56:19.833000000",
				"NUMBER_OF_FRAMES-eng": 1261,
				"NUMBER_OF_BYTES-eng": 40234,
				"_STATISTICS_WRITING_APP-eng": "mkvmerge v51.0.0 ('I Wish') 64-bit",
				"_STATISTICS_WRITING_DATE_UTC-eng": "2022-07-22 11:08:33",
				"_STATISTICS_TAGS-eng": "BPS DURATION NUMBER_OF_FRAMES NUMBER_OF_BYTES"
			}
		},
		{
			"index": 34,
			"codec_name": "subrip",
			"codec_long_name": "SubRip subtitle",
			"codec_type": "subtitle",
			"codec_tag_string": "[0][0][0][0]",
			"codec_tag": "0x0000",
			"r_frame_rate": "0/0",
			"avg_frame_rate": "0/0",
			"time_base": "1/1000",
			"start_pts": 0,
			"start_time": 0.0,
			"duration_ts": 7733859,
			"duration": 7733.859,
			"disposition": {
				"default": 0,
				"dub": 0,
				"original": 0,
				"comment": 0,
				"lyrics": 0,
				"karaoke": 0,
				"forced": 0,
				"hearing_impaired": 0,
				"visual_impaired": 0,
				"clean_effects": 0,
				"attached_pic": 0,
				"timed_thumbnails": 0,
				"captions": 0,
				"descriptions": 0,
				"metadata": 0,
				"dependent": 0,
				"still_image": 0
			},
			"tags": {
				"language": "rum",
				"BPS-eng": 46,
				"DURATION-eng": "02:06:06.833000000",
				"NUMBER_OF_FRAMES-eng": 1210,
				"NUMBER_OF_BYTES-eng": 43803,
				"_STATISTICS_WRITING_APP-eng": "mkvmerge v51.0.0 ('I Wish') 64-bit",
				"_STATISTICS_WRITING_DATE_UTC-eng": "2022-07-22 11:08:33",
				"_STATISTICS_TAGS-eng": "BPS DURATION NUMBER_OF_FRAMES NUMBER_OF_BYTES"
			}
		},
		{
			"index": 35,
			"codec_name": "subrip",
			"codec_long_name": "SubRip subtitle",
			"codec_type": "subtitle",
			"codec_tag_string": "[0][0][0][0]",
			"codec_tag": "0x0000",
			"r_frame_rate": "0/0",
			"avg_frame_rate": "0/0",
			"time_base": "1/1000",
			"start_pts": 0,
			"start_time": 0.0,
			"duration_ts": 7733859,
			"duration": 7733.859,
			"disposition": {
				"default": 0,
				"dub": 0,
				"original": 0,
				"comment": 0,
				"lyrics": 0,
				"karaoke": 0,
				"forced": 0,
				"hearing_impaired": 0,
				"visual_impaired": 0,
				"clean_effects": 0,
				"attached_pic": 0,
				"timed_thumbnails": 0,
				"captions": 0,
				"descriptions": 0,
				"metadata": 0,
				"dependent": 0,
				"still_image": 0
			},
			"tags": {
				"language": "rus",
				"BPS-eng": 63,
				"DURATION-eng": "02:06:05.083000000",
				"NUMBER_OF_FRAMES-eng": 1301,
				"NUMBER_OF_BYTES-eng": 59739,
				"_STATISTICS_WRITING_APP-eng": "mkvmerge v51.0.0 ('I Wish') 64-bit",
				"_STATISTICS_WRITING_DATE_UTC-eng": "2022-07-22 11:08:33",
				"_STATISTICS_TAGS-eng": "BPS DURATION NUMBER_OF_FRAMES NUMBER_OF_BYTES"
			}
		},
		{
			"index": 36,
			"codec_name": "subrip",
			"codec_long_name": "SubRip subtitle",
			"codec_type": "subtitle",
			"codec_tag_string": "[0][0][0][0]",
			"codec_tag": "0x0000",
			"r_frame_rate": "0/0",
			"avg_frame_rate": "0/0",
			"time_base": "1/1000",
			"start_pts": 0,
			"start_time": 0.0,
			"duration_ts": 7733859,
			"duration": 7733.859,
			"disposition": {
				"default": 0,
				"dub": 0,
				"original": 0,
				"comment": 0,
				"lyrics": 0,
				"karaoke": 0,
				"forced": 0,
				"hearing_impaired": 0,
				"visual_impaired": 0,
				"clean_effects": 0,
				"attached_pic": 0,
				"timed_thumbnails": 0,
				"captions": 0,
				"descriptions": 0,
				"metadata": 0,
				"dependent": 0,
				"still_image": 0
			},
			"tags": {
				"language": "swe",
				"BPS-eng": 37,
				"DURATION-eng": "02:06:05.083000000",
				"NUMBER_OF_FRAMES-eng": 940,
				"NUMBER_OF_BYTES-eng": 35900,
				"_STATISTICS_WRITING_APP-eng": "mkvmerge v51.0.0 ('I Wish') 64-bit",
				"_STATISTICS_WRITING_DATE_UTC-eng": "2022-07-22 11:08:33",
				"_STATISTICS_TAGS-eng": "BPS DURATION NUMBER_OF_FRAMES NUMBER_OF_BYTES"
			}
		},
		{
			"index": 37,
			"codec_name": "subrip",
			"codec_long_name": "SubRip subtitle",
			"codec_type": "subtitle",
			"codec_tag_string": "[0][0][0][0]",
			"codec_tag": "0x0000",
			"r_frame_rate": "0/0",
			"avg_frame_rate": "0/0",
			"time_base": "1/1000",
			"start_pts": 0,
			"start_time": 0.0,
			"duration_ts": 7733859,
			"duration": 7733.859,
			"disposition": {
				"default": 0,
				"dub": 0,
				"original": 0,
				"comment": 0,
				"lyrics": 0,
				"karaoke": 0,
				"forced": 0,
				"hearing_impaired": 0,
				"visual_impaired": 0,
				"clean_effects": 0,
				"attached_pic": 0,
				"timed_thumbnails": 0,
				"captions": 0,
				"descriptions": 0,
				"metadata": 0,
				"dependent": 0,
				"still_image": 0
			},
			"tags": {
				"language": "tha",
				"BPS-eng": 94,
				"DURATION-eng": "02:06:05.083000000",
				"NUMBER_OF_FRAMES-eng": 1311,
				"NUMBER_OF_BYTES-eng": 89698,
				"_STATISTICS_WRITING_APP-eng": "mkvmerge v51.0.0 ('I Wish') 64-bit",
				"_STATISTICS_WRITING_DATE_UTC-eng": "2022-07-22 11:08:33",
				"_STATISTICS_TAGS-eng": "BPS DURATION NUMBER_OF_FRAMES NUMBER_OF_BYTES"
			}
		},
		{
			"index": 38,
			"codec_name": "subrip",
			"codec_long_name": "SubRip subtitle",
			"codec_type": "subtitle",
			"codec_tag_string": "[0][0][0][0]",
			"codec_tag": "0x0000",
			"r_frame_rate": "0/0",
			"avg_frame_rate": "0/0",
			"time_base": "1/1000",
			"start_pts": 0,
			"start_time": 0.0,
			"duration_ts": 7733859,
			"duration": 7733.859,
			"disposition": {
				"default": 0,
				"dub": 0,
				"original": 0,
				"comment": 0,
				"lyrics": 0,
				"karaoke": 0,
				"forced": 0,
				"hearing_impaired": 0,
				"visual_impaired": 0,
				"clean_effects": 0,
				"attached_pic": 0,
				"timed_thumbnails": 0,
				"captions": 0,
				"descriptions": 0,
				"metadata": 0,
				"dependent": 0,
				"still_image": 0
			},
			"tags": {
				"language": "tur",
				"BPS-eng": 41,
				"DURATION-eng": "02:06:05.083000000",
				"NUMBER_OF_FRAMES-eng": 1060,
				"NUMBER_OF_BYTES-eng": 38999,
				"_STATISTICS_WRITING_APP-eng": "mkvmerge v51.0.0 ('I Wish') 64-bit",
				"_STATISTICS_WRITING_DATE_UTC-eng": "2022-07-22 11:08:33",
				"_STATISTICS_TAGS-eng": "BPS DURATION NUMBER_OF_FRAMES NUMBER_OF_BYTES"
			}
		},
		{
			"index": 39,
			"codec_name": "subrip",
			"codec_long_name": "SubRip subtitle",
			"codec_type": "subtitle",
			"codec_tag_string": "[0][0][0][0]",
			"codec_tag": "0x0000",
			"r_frame_rate": "0/0",
			"avg_frame_rate": "0/0",
			"time_base": "1/1000",
			"start_pts": 0,
			"start_time": 0.0,
			"duration_ts": 7733859,
			"duration": 7733.859,
			"disposition": {
				"default": 0,
				"dub": 0,
				"original": 0,
				"comment": 0,
				"lyrics": 0,
				"karaoke": 0,
				"forced": 0,
				"hearing_impaired": 0,
				"visual_impaired": 0,
				"clean_effects": 0,
				"attached_pic": 0,
				"timed_thumbnails": 0,
				"captions": 0,
				"descriptions": 0,
				"metadata": 0,
				"dependent": 0,
				"still_image": 0
			},
			"tags": {
				"language": "ukr",
				"BPS-eng": 65,
				"DURATION-eng": "02:06:05.083000000",
				"NUMBER_OF_FRAMES-eng": 1278,
				"NUMBER_OF_BYTES-eng": 61474,
				"_STATISTICS_WRITING_APP-eng": "mkvmerge v51.0.0 ('I Wish') 64-bit",
				"_STATISTICS_WRITING_DATE_UTC-eng": "2022-07-22 11:08:33",
				"_STATISTICS_TAGS-eng": "BPS DURATION NUMBER_OF_FRAMES NUMBER_OF_BYTES"
			}
		},
		{
			"index": 40,
			"codec_name": "subrip",
			"codec_long_name": "SubRip subtitle",
			"codec_type": "subtitle",
			"codec_tag_string": "[0][0][0][0]",
			"codec_tag": "0x0000",
			"r_frame_rate": "0/0",
			"avg_frame_rate": "0/0",
			"time_base": "1/1000",
			"start_pts": 0,
			"start_time": 0.0,
			"duration_ts": 7733859,
			"duration": 7733.859,
			"disposition": {
				"default": 0,
				"dub": 0,
				"original": 0,
				"comment": 0,
				"lyrics": 0,
				"karaoke": 0,
				"forced": 0,
				"hearing_impaired": 0,
				"visual_impaired": 0,
				"clean_effects": 0,
				"attached_pic": 0,
				"timed_thumbnails": 0,
				"captions": 0,
				"descriptions": 0,
				"metadata": 0,
				"dependent": 0,
				"still_image": 0
			},
			"tags": {
				"language": "vie",
				"BPS-eng": 56,
				"DURATION-eng": "02:06:05.083000000",
				"NUMBER_OF_FRAMES-eng": 1272,
				"NUMBER_OF_BYTES-eng": 53525,
				"_STATISTICS_WRITING_APP-eng": "mkvmerge v51.0.0 ('I Wish') 64-bit",
				"_STATISTICS_WRITING_DATE_UTC-eng": "2022-07-22 11:08:33",
				"_STATISTICS_TAGS-eng": "BPS DURATION NUMBER_OF_FRAMES NUMBER_OF_BYTES"
			}
		},
		{
			"index": 41,
			"codec_name": "subrip",
			"codec_long_name": "SubRip subtitle",
			"codec_type": "subtitle",
			"codec_tag_string": "[0][0][0][0]",
			"codec_tag": "0x0000",
			"r_frame_rate": "0/0",
			"avg_frame_rate": "0/0",
			"time_base": "1/1000",
			"start_pts": 0,
			"start_time": 0.0,
			"duration_ts": 7733859,
			"duration": 7733.859,
			"disposition": {
				"default": 0,
				"dub": 0,
				"original": 0,
				"comment": 0,
				"lyrics": 0,
				"karaoke": 0,
				"forced": 0,
				"hearing_impaired": 0,
				"visual_impaired": 0,
				"clean_effects": 0,
				"attached_pic": 0,
				"timed_thumbnails": 0,
				"captions": 0,
				"descriptions": 0,
				"metadata": 0,
				"dependent": 0,
				"still_image": 0
			},
			"tags": {
				"language": "chi",
				"title": "Simplified",
				"BPS-eng": 44,
				"DURATION-eng": "02:06:05.083000000",
				"NUMBER_OF_FRAMES-eng": 1303,
				"NUMBER_OF_BYTES-eng": 42300,
				"_STATISTICS_WRITING_APP-eng": "mkvmerge v51.0.0 ('I Wish') 64-bit",
				"_STATISTICS_WRITING_DATE_UTC-eng": "2022-07-22 11:08:33",
				"_STATISTICS_TAGS-eng": "BPS DURATION NUMBER_OF_FRAMES NUMBER_OF_BYTES"
			}
		},
		{
			"index": 42,
			"codec_name": "subrip",
			"codec_long_name": "SubRip subtitle",
			"codec_type": "subtitle",
			"codec_tag_string": "[0][0][0][0]",
			"codec_tag": "0x0000",
			"r_frame_rate": "0/0",
			"avg_frame_rate": "0/0",
			"time_base": "1/1000",
			"start_pts": 0,
			"start_time": 0.0,
			"duration_ts": 7733859,
			"duration": 7733.859,
			"disposition": {
				"default": 0,
				"dub": 0,
				"original": 0,
				"comment": 0,
				"lyrics": 0,
				"karaoke": 0,
				"forced": 0,
				"hearing_impaired": 0,
				"visual_impaired": 0,
				"clean_effects": 0,
				"attached_pic": 0,
				"timed_thumbnails": 0,
				"captions": 0,
				"descriptions": 0,
				"metadata": 0,
				"dependent": 0,
				"still_image": 0
			},
			"tags": {
				"language": "chi",
				"title": "Traditional",
				"BPS-eng": 39,
				"DURATION-eng": "02:06:05.083000000",
				"NUMBER_OF_FRAMES-eng": 1348,
				"NUMBER_OF_BYTES-eng": 37205,
				"_STATISTICS_WRITING_APP-eng": "mkvmerge v51.0.0 ('I Wish') 64-bit",
				"_STATISTICS_WRITING_DATE_UTC-eng": "2022-07-22 11:08:33",
				"_STATISTICS_TAGS-eng": "BPS DURATION NUMBER_OF_FRAMES NUMBER_OF_BYTES"
			}
		}
	]
}
